PathFileType	4	(X/Y/Z)	s09c0401.trc
DataRate	CameraRate	NumFrames	NumMarkers	Units	OrigDataRate	OrigDataStartFrame	OrigNumFrames
200	200	4	50	mm	200	0	2000
Frame#	Time	racr			lacr			c7			jug			rlel			rdr			llel			ldr			s2			lic			ric			lasi			rasi			rpsi			lpsi			rgt			lgt			rth1			rth2			rth3			rth4			rlfc			rmfc			rsh1			rsh2			rsh3			rsh4			rlmal			rmmal			rcal			rtoe			rmt5			lth1			lth2			lth4			lth3			llfc			lmfc			llmal			lmmal			lcal			lmt5			lsh1			lsh2			lsh3			lsh4			ltoe			SBIKE			LBIKE			RBIKE			
		X1	Y1	Z1	X2	Y2	Z2	X3	Y3	Z3	X4	Y4	Z4	X5	Y5	Z5	X6	Y6	Z6	X7	Y7	Z7	X8	Y8	Z8	X9	Y9	Z9	X10	Y10	Z10	X11	Y11	Z11	X12	Y12	Z12	X13	Y13	Z13	X14	Y14	Z14	X15	Y15	Z15	X16	Y16	Z16	X17	Y17	Z17	X18	Y18	Z18	X19	Y19	Z19	X20	Y20	Z20	X21	Y21	Z21	X22	Y22	Z22	X23	Y23	Z23	X24	Y24	Z24	X25	Y25	Z25	X26	Y26	Z26	X27	Y27	Z27	X28	Y28	Z28	X29	Y29	Z29	X30	Y30	Z30	X31	Y31	Z31	X32	Y32	Z32	X33	Y33	Z33	X34	Y34	Z34	X35	Y35	Z35	X36	Y36	Z36	X37	Y37	Z37	X38	Y38	Z38	X39	Y39	Z39	X40	Y40	Z40	X41	Y41	Z41	X42	Y42	Z42	X43	Y43	Z43	X44	Y44	Z44	X45	Y45	Z45	X46	Y46	Z46	X47	Y47	Z47	X48	Y48	Z48	X49	Y49	Z49	X50	Y50	Z50	
0	0.0000	539.442190	1316.928926	-103.882079	538.288248	1303.499304	-408.626149	0.000000	0.000000	-0.000000	502.586557	1196.735811	-251.010121	506.530557	1081.708906	20.939580	682.941624	909.434488	-35.542905	457.013443	1045.594002	-513.742263	662.014915	907.174426	-456.785590	29.853503	1152.650315	-229.858797	164.011228	1138.383636	-379.171546	184.720117	1132.590439	-93.091881	198.285089	1072.818665	-361.649066	219.503317	1069.522409	-113.637524	66.754144	1178.734046	-170.557718	60.113973	1187.612608	-280.778401	145.342249	991.423555	-46.362459	116.734694	1022.802633	-427.926843	233.313650	884.844784	-56.287392	299.463698	829.178164	-70.574724	327.129396	744.869603	-80.333131	322.550107	846.947760	-93.080661	360.666328	650.189542	-116.323258	336.214930	638.773348	-213.139436	275.013841	592.614440	-83.405537	225.851142	517.900380	-95.232766	147.192241	479.173125	-91.801500	240.272875	501.779790	-128.434294	69.657546	416.397230	-89.780139	77.105575	422.906405	-169.293563	-20.817242	417.477513	-127.849368	215.190356	297.823285	-123.737112	132.482203	318.436326	-60.758592	223.175059	937.421916	-428.143653	304.707892	911.296647	-421.985868	324.554442	939.920632	-406.026988	365.062464	843.992702	-420.681520	434.554930	767.225873	-402.874217	454.458998	755.739826	-304.704151	359.514836	409.608229	-406.852321	375.784411	420.819322	-336.501805	288.403498	373.302450	-369.985025	455.355494	327.545293	-433.407763	413.080419	668.329978	-424.775718	419.236432	581.994792	-415.606921	379.614340	502.487640	-413.534052	444.441587	580.165404	-385.456666	547.465074	344.225807	-366.046278	-65.019745	853.095357	-240.623253	21.123874	83.717689	-442.135599	21.254328	83.691424	-43.844750	
1	0.0050	539.554167	1316.809348	-103.854968	538.413839	1303.342366	-408.602893	0.000000	0.000000	-0.000000	502.700883	1196.540917	-250.981951	506.469576	1081.591754	21.023086	682.810700	909.433649	-35.762009	456.987549	1045.545069	-513.797856	661.982636	907.187815	-456.870969	29.947149	1152.664432	-229.816907	164.068109	1138.363172	-379.148389	184.791764	1132.577186	-93.063630	198.330354	1072.791373	-361.621176	219.574253	1069.469228	-113.615577	66.823677	1178.756788	-170.538401	60.200187	1187.632371	-280.785265	145.421749	991.442395	-46.308177	116.739716	1022.769035	-427.909991	233.396066	884.864167	-56.236079	299.528033	829.199892	-70.542440	327.186092	744.889462	-80.288673	322.590937	846.955039	-93.039679	360.708618	650.183465	-116.277069	336.250527	638.763561	-213.118758	275.053204	592.596638	-83.362029	225.868220	517.906669	-95.199385	147.210386	479.183501	-91.785055	240.304915	501.778125	-128.410697	69.679584	416.418555	-89.767443	77.105771	422.913611	-169.291135	-20.819473	417.556771	-127.814882	215.195105	297.834573	-123.722618	132.511958	318.447098	-60.759324	223.156391	937.404586	-428.173695	304.689258	911.274456	-422.036959	324.539745	939.905641	-406.079309	365.051238	843.971562	-420.725161	434.563405	767.180406	-402.937021	454.479137	755.709854	-304.738349	359.510623	409.602739	-406.850147	375.787864	420.823339	-336.508066	288.413802	373.301254	-369.971831	455.342740	327.519348	-433.410868	413.096372	668.304474	-424.803733	419.256727	581.937782	-415.608353	379.649237	502.465602	-413.552415	444.460199	580.115739	-385.414535	547.474355	344.218687	-366.050957	-65.011924	853.086242	-240.634307	21.130033	83.731978	-442.135712	21.260851	83.696078	-43.840607	
2	0.0100	539.671721	1316.693015	-103.854897	538.526317	1303.180646	-408.590534	0.000000	0.000000	-0.000000	502.777868	1196.354369	-250.930298	506.430518	1081.521327	21.092103	682.679408	909.433973	-35.979414	456.936167	1045.452012	-513.884088	661.948619	907.205727	-456.920774	30.009846	1152.704884	-229.791709	164.101635	1138.336783	-379.095059	184.878302	1132.576022	-93.033314	198.375066	1072.771538	-361.587960	219.641068	1069.417077	-113.630202	66.922410	1178.780119	-170.529804	60.286497	1187.671862	-280.751851	145.480169	991.459472	-46.282530	116.745249	1022.768960	-427.884626	233.452283	884.889009	-56.203281	299.568072	829.215769	-70.505801	327.218225	744.893136	-80.249996	322.641820	846.977545	-93.015410	360.718226	650.186781	-116.234007	336.310056	638.735883	-213.068929	275.062424	592.595296	-83.329357	225.875054	517.901397	-95.178770	147.206510	479.193759	-91.766836	240.324042	501.785835	-128.383711	69.670206	416.424083	-89.765379	77.117631	422.921738	-169.286151	-20.817505	417.500097	-127.849304	215.188057	297.828191	-123.724527	132.500366	318.450997	-60.746855	223.157460	937.402450	-428.173568	304.664813	911.258274	-422.073844	324.529830	939.897324	-406.120470	365.027709	843.951290	-420.762465	434.536202	767.184504	-402.996958	454.490196	755.717386	-304.790692	359.520107	409.605839	-406.841173	375.819498	420.816776	-336.492677	288.411757	373.316179	-369.971159	455.347867	327.531096	-433.411405	413.111141	668.282191	-424.838835	419.265716	581.922913	-415.628521	379.662402	502.443722	-413.567988	444.489810	580.092280	-385.426430	547.474167	344.201335	-366.044424	-65.010088	853.075428	-240.639779	21.104935	83.583949	-442.239032	21.267030	83.708009	-43.841670	
3	0.0150	539.675673	1317.360301	-103.763298	538.645070	1303.017730	-408.564801	0.000000	0.000000	-0.000000	502.893024	1196.175575	-250.909299	506.435570	1081.613754	21.557478	682.555110	909.442596	-36.165026	456.950073	1045.101344	-514.057491	661.911246	907.211614	-456.971261	30.121750	1152.735939	-229.765903	164.150383	1138.341219	-379.072627	184.131941	1132.454522	-94.028945	198.417253	1072.778085	-361.546892	219.684280	1069.407835	-113.611389	67.386326	1178.268932	-170.701407	60.374500	1187.697807	-280.716519	145.584568	991.500707	-46.262976	116.778017	1022.780043	-427.865943	233.808296	884.803959	-55.731272	299.504498	829.543526	-70.311858	327.245614	744.923456	-80.192978	322.478598	846.475927	-93.519027	361.041362	649.943930	-116.067003	336.381988	638.706357	-212.996259	275.052718	592.589815	-83.290643	226.572132	517.869235	-94.689804	146.742312	479.785404	-91.343980	243.212509	502.582073	-127.505156	69.741513	416.477563	-89.628297	77.127582	422.906740	-169.261364	-20.816353	417.476607	-127.844636	215.193607	297.815633	-123.700451	132.510595	318.435512	-60.753555	223.218769	937.254153	-428.228659	304.679443	911.263920	-422.089620	324.468750	939.758233	-405.953632	365.037509	843.945422	-420.766810	434.567668	767.101655	-403.075329	454.493243	755.726787	-304.822079	359.199407	410.229913	-407.301380	375.838629	420.852918	-336.487633	288.429973	373.333854	-369.968125	455.353165	327.521389	-433.396612	413.215954	668.221678	-424.820813	419.268329	581.877450	-415.689102	379.685165	502.441440	-413.564364	444.539615	580.085262	-385.425918	547.485829	344.202270	-366.050367	-65.006469	853.073791	-240.633989	21.123421	83.717897	-442.134257	21.259099	83.699925	-43.839861	
